<?xml version="1.0" encoding="utf-8"?>
<!-- Generator: Adobe Illustrator 24.1.1, SVG Export Plug-In . SVG Version: 6.00 Build 0)  -->
<svg version="1.1" id="Ebene_1" xmlns="http://www.w3.org/2000/svg" xmlns:xlink="http://www.w3.org/1999/xlink" x="0px" y="0px"
	 viewBox="0 0 1331.3 567.7" style="enable-background:new 0 0 1331.3 567.7;" xml:space="preserve">
<style type="text/css">
	.st0{enable-background:new    ;}
	.st1{fill:#0D0D0D;}
</style>
<g id="Ebene_8">
	<g class="st0">
		<path class="st1" d="M742.7,199.5c9.4,0,15.9,1,22.1,6.4c6.8,6,8.5,14.2,8.5,20.2c0,3.3-0.5,12.3-6.9,18.7
			c-4.6,4.6-11.5,7.4-21.2,7.4h-10.5v31h-16.3v-83.6H742.7z M734.7,238.1h6.6c3.1,0,7.1,0,10.7-2.6c3-2.4,4.5-6.1,4.5-9.8
			c0-4.6-2.3-7.8-4.6-9.5c-3.4-2.4-7.6-2.6-11.5-2.6h-5.6V238.1z"/>
		<path class="st1" d="M823.5,228.8h15.3v54.3h-15.3v-7c-5.5,7.9-12.8,8.8-16.7,8.8c-16.7,0-27.7-13-27.7-29
			c0-16.1,10.9-28.8,27-28.8c4.1,0,12.3,0.8,17.4,8.8V228.8z M794.9,255.9c0,8.7,6.3,15.4,15,15.4c8.8,0,15-6.8,15-15.4
			s-6.3-15.3-15-15.3C801.1,240.6,794.9,247.2,794.9,255.9z"/>
		<path class="st1" d="M868.6,228.8v30.7c0,2.9,0.3,6.8,3.3,9.5c1.9,1.6,4.9,2.8,7.8,2.8s5.9-1.1,7.8-2.8c3-2.8,3.3-6.6,3.3-9.5
			v-30.7H906V262c0,4.9-0.6,11.4-6.6,16.7c-5,4.4-13,6.1-19.7,6.1c-6.6,0-14.7-1.8-19.7-6.1c-6-5.3-6.6-11.8-6.6-16.7v-33.2H868.6z"
			/>
		<path class="st1" d="M935.8,191.7v91.4h-15.3v-91.4H935.8z"/>
	</g>
	<g class="st0">
		<path class="st1" d="M742.7,344.9c9.4,0,15.9,1,22.1,6.4c6.8,6,8.5,14.2,8.5,20.2c0,3.3-0.5,12.3-6.9,18.7
			c-4.6,4.6-11.5,7.4-21.2,7.4h-10.5v31h-16.3v-83.6H742.7z M734.7,383.5h6.6c3.1,0,7.1,0,10.7-2.6c3-2.4,4.5-6.1,4.5-9.8
			c0-4.6-2.3-7.8-4.6-9.5c-3.4-2.4-7.6-2.6-11.5-2.6h-5.6V383.5z"/>
		<path class="st1" d="M790.7,342.2c5,0,9.2,4.1,9.2,9.2s-4.1,9.2-9.2,9.2c-5,0-9.2-4.1-9.2-9.2S785.7,342.2,790.7,342.2z
			 M798.4,374.3v54.3h-15.3v-54.3H798.4z"/>
		<path class="st1" d="M828.2,457.3h-15.3v-83h15.3v7c2.4-3.4,7.6-8.8,17.7-8.8c4.8,0,12.4,1.1,18.6,7.3c4,4,8.2,10.8,8.2,21.6
			c0,12.3-5.4,18.9-8.5,21.9c-4.1,3.9-10.4,7-18.4,7c-3.8,0-11.4-0.6-17.4-8.8V457.3z M831.9,389.7c-3.4,2.9-5.1,6.6-5.1,11.7
			s2,9.2,5,11.8c2,1.8,5.3,3.6,10,3.6c5,0,8.3-2,10.3-3.9c3.3-3,4.8-7.5,4.8-11.5s-1.6-8.5-4.6-11.4c-2.8-2.5-6.8-3.9-10.4-3.9
			C837.8,386,834.6,387.2,831.9,389.7z"/>
		<path class="st1" d="M937.7,413.4c-1.6,4-7.8,16.9-26.7,16.9c-8.8,0-15.4-2.5-20.8-7.6c-6-5.6-8.5-12.7-8.5-21.2
			c0-10.8,4.4-17.4,8.3-21.3c6.4-6.3,13.9-7.6,20.4-7.6c11,0,17.4,4.4,21.2,8.9c5.8,6.9,6.5,15.4,6.5,21.3v1.3h-40.6
			c0,3.3,0.9,6.8,2.6,9.2c1.6,2.3,5,5.1,10.9,5.1c5.8,0,10.2-2.8,12.7-7.1L937.7,413.4z M923.6,394.2c-1.3-7.4-7.3-10.9-12.9-10.9
			c-5.6,0-11.5,3.6-12.8,10.9H923.6z"/>
		<path class="st1" d="M949.8,374.3h15.3v8.2c2.4-4.6,5.6-6.9,6.8-7.5c2.4-1.5,5.4-2.4,9-2.4c2.6,0,4.8,0.6,6.5,1.3l-2,14.3
			c-2-1.4-4-2-7.1-2c-2.9,0-7.1,0.6-10.2,4.4c-2.9,3.6-3,8.3-3,12v26.1h-15.3V374.3z"/>
	</g>
	<path class="st1" d="M376.8,118.1l-17.7,17.7V157l0.4,129.4v1c47.3-1.4,84.6-40.9,83.2-88.2C441.6,160.4,414.6,127.2,376.8,118.1
		L376.8,118.1z"/>
	<path class="st1" d="M232.1,281.1c-47.3,1.4-84.6,40.9-83.2,88.2c1.1,38.8,28.2,72,65.9,81l17.7-17.7v-21.2L232.1,282L232.1,281.1z
		"/>
	<path class="st1" d="M295.8,0C132.4,0,0,127.1,0,283.9s132.4,283.8,295.8,283.8s295.8-127.1,295.8-283.8S459.1,0,295.8,0z
		 M274.7,451.1v0.3l-0.8,0.9l-40.5,41.2C164,492,109,434.4,110.6,365c1.5-67.1,55.5-121.2,122.6-122.8v-41l-0.9-41.4l40.8-41.3
		l1.5-1.6l0,0L274.7,451.1z M358.5,326.2v41l0.9,41.4l-40.8,41.3l-1.5,1.6l0,0V116.9l0.9-0.9l40.4-41.2
		c69.4,1.6,124.4,59.1,122.8,128.5C479.5,270.5,425.6,324.5,358.5,326.2L358.5,326.2z"/>
	<rect x="656.2" y="191.7" class="st1" width="4.3" height="232.7"/>
</g>
</svg>
